<svg width="16" height="16" viewBox="0 0 16 16" fill="none" xmlns="http://www.w3.org/2000/svg">
<path fill-rule="evenodd" clip-rule="evenodd" d="M2.40039 8.00005C2.40039 7.66868 2.66902 7.40005 3.00039 7.40005L11.5107 7.40005L8.18453 4.23255C7.94566 4.00287 7.93821 3.62305 8.16789 3.38418C8.39757 3.14532 8.77739 3.13787 9.01626 3.36755L13.4163 7.56755C13.5339 7.68067 13.6004 7.83684 13.6004 8.00005C13.6004 8.16326 13.5339 8.31943 13.4163 8.43255L9.01626 12.6325C8.77739 12.8622 8.39757 12.8548 8.16789 12.6159C7.93822 12.3771 7.94566 11.9972 8.18453 11.7675L11.5107 8.60005L3.00039 8.60005C2.66902 8.60005 2.40039 8.33142 2.40039 8.00005Z" fill="#DC885B"/>
</svg>
