<svg width="16" height="16" viewBox="0 0 16 16" fill="none" xmlns="http://www.w3.org/2000/svg">
<path fill-rule="evenodd" clip-rule="evenodd" d="M2.39844 8.00005C2.39844 7.66868 2.66707 7.40005 2.99844 7.40005L11.5088 7.40005L8.18257 4.23255C7.94371 4.00287 7.93626 3.62305 8.16594 3.38418C8.39561 3.14532 8.77544 3.13787 9.0143 3.36755L13.4143 7.56755C13.532 7.68067 13.5984 7.83684 13.5984 8.00005C13.5984 8.16326 13.532 8.31943 13.4143 8.43255L9.0143 12.6325C8.77544 12.8622 8.39561 12.8548 8.16594 12.6159C7.93626 12.3771 7.94371 11.9972 8.18257 11.7675L11.5088 8.60005L2.99844 8.60005C2.66707 8.60005 2.39844 8.33142 2.39844 8.00005Z" fill="#00605C"/>
</svg>
