<svg width="24" height="24" viewBox="0 0 24 24" fill="none" xmlns="http://www.w3.org/2000/svg">
<path fill-rule="evenodd" clip-rule="evenodd" d="M2.25 12.0015C2.25 6.61669 6.61522 2.25146 12 2.25146C17.3848 2.25146 21.75 6.61669 21.75 12.0015C21.75 17.3862 17.3848 21.7515 12 21.7515C6.61522 21.7515 2.25 17.3862 2.25 12.0015ZM9 8.25146C8.58579 8.25146 8.25 8.58725 8.25 9.00146V15.0015C8.25 15.4157 8.58579 15.7515 9 15.7515H9.75C10.1642 15.7515 10.5 15.4157 10.5 15.0015V9.00146C10.5 8.58725 10.1642 8.25146 9.75 8.25146H9ZM14.25 8.25146C13.8358 8.25146 13.5 8.58725 13.5 9.00146V15.0015C13.5 15.4157 13.8358 15.7515 14.25 15.7515H15C15.4142 15.7515 15.75 15.4157 15.75 15.0015V9.00146C15.75 8.58725 15.4142 8.25146 15 8.25146H14.25Z" fill="#DC885B"/>
</svg>
