<svg width="32" height="33" viewBox="0 0 32 33" fill="none" xmlns="http://www.w3.org/2000/svg">
<path d="M2.67196 16.2207C2.72174 13.7644 2.74663 12.5362 3.56254 11.4849C3.71146 11.293 3.92996 11.0649 4.1131 10.9103C5.11648 10.0632 6.44123 10.0632 9.09072 10.0632C10.0373 10.0632 10.5106 10.0632 10.9618 9.93938C11.0555 9.91364 11.1483 9.88397 11.2398 9.85042C11.6804 9.68901 12.0756 9.41117 12.866 8.8555C15.9842 6.66319 17.5433 5.56704 18.8519 6.04322C19.1028 6.13452 19.3457 6.26631 19.5626 6.42885C20.6939 7.27661 20.7798 9.24902 20.9517 13.1938C21.0154 14.6545 21.0588 15.9047 21.0588 16.6C21.0588 17.2954 21.0154 18.5455 20.9517 20.0062C20.7798 23.951 20.6939 25.9234 19.5626 26.7712C19.3457 26.9337 19.1028 27.0655 18.8519 27.1568C17.5433 27.633 15.9842 26.5368 12.866 24.3445C12.0756 23.7889 11.6804 23.511 11.2398 23.3496C11.1483 23.3161 11.0555 23.2864 10.9618 23.2607C10.5106 23.1368 10.0373 23.1368 9.09072 23.1368C6.44123 23.1368 5.11648 23.1368 4.1131 22.2897C3.92997 22.1351 3.71146 21.9071 3.56254 21.7152C2.74663 20.6638 2.72174 19.4357 2.67196 16.9794C2.66934 16.8504 2.66797 16.7237 2.66797 16.6C2.66797 16.4763 2.66934 16.3497 2.67196 16.2207Z" fill="#22313F"/>
<path fill-rule="evenodd" clip-rule="evenodd" d="M25.9873 8.00294C26.3775 7.65626 26.9573 7.71247 27.2824 8.12848L26.576 8.75619C27.2824 8.12848 27.2821 8.12804 27.2824 8.12848L27.2838 8.13028L27.2854 8.1323L27.289 8.13702L27.2982 8.14914C27.3052 8.15841 27.3139 8.17009 27.3241 8.1842C27.3446 8.2124 27.3713 8.25031 27.4033 8.29812C27.4673 8.39373 27.5527 8.52891 27.6519 8.70521C27.8504 9.05795 28.104 9.57458 28.3538 10.2672C28.8543 11.6548 29.3346 13.7352 29.3346 16.6003C29.3346 19.4655 28.8543 21.5459 28.3538 22.9335C28.104 23.6261 27.8504 24.1427 27.6519 24.4954C27.5527 24.6717 27.4673 24.8069 27.4033 24.9025C27.3713 24.9503 27.3446 24.9883 27.3241 25.0165C27.3139 25.0306 27.3052 25.0422 27.2982 25.0515L27.289 25.0636L27.2854 25.0684L27.2838 25.0704C27.2835 25.0708 27.2824 25.0722 26.576 24.4445L27.2824 25.0722C26.9573 25.4882 26.3775 25.5444 25.9873 25.1977C25.5991 24.8527 25.545 24.2387 25.865 23.8227C25.8657 23.8217 25.8671 23.8198 25.8692 23.8169C25.8757 23.808 25.8885 23.79 25.9068 23.7627C25.9433 23.7082 26.0017 23.6166 26.0749 23.4865C26.2212 23.2264 26.4274 22.8116 26.6373 22.2295C27.0563 21.0677 27.4956 19.2261 27.4956 16.6003C27.4956 13.9746 27.0563 12.1329 26.6373 10.9712C26.4274 10.3891 26.2212 9.97423 26.0749 9.71415C26.0017 9.58404 25.9433 9.49247 25.9068 9.43795C25.8885 9.41068 25.8757 9.39267 25.8692 9.38372C25.8671 9.38083 25.8657 9.37889 25.8649 9.37789C25.8649 9.37788 25.8649 9.37789 25.8649 9.37789" fill="#22313F"/>
<path fill-rule="evenodd" clip-rule="evenodd" d="M23.6775 11.8213C24.1214 11.5583 24.6812 11.7289 24.9279 12.2022L24.1241 12.6784C24.9279 12.2022 24.9277 12.2018 24.9279 12.2022L24.9288 12.2039L24.9297 12.2058L24.9318 12.2098L24.9365 12.2191L24.9483 12.243C24.9572 12.2614 24.9681 12.2847 24.9806 12.3128C25.0057 12.369 25.0375 12.4449 25.0736 12.541C25.1458 12.7334 25.2348 13.0066 25.3213 13.3664C25.4945 14.0866 25.6566 15.1492 25.6566 16.6005C25.6566 18.0518 25.4945 19.1143 25.3213 19.8346C25.2348 20.1944 25.1458 20.4676 25.0736 20.66C25.0375 20.7561 25.0057 20.8319 24.9806 20.8882C24.9681 20.9163 24.9572 20.9395 24.9483 20.9579L24.9365 20.9819L24.9318 20.9912L24.9297 20.9952L24.9288 20.997C24.9285 20.9974 24.9279 20.9987 24.1241 20.5226L24.9279 20.9987C24.6812 21.4721 24.1214 21.6427 23.6775 21.3797C23.2373 21.1189 23.0763 20.5299 23.314 20.0585L23.3202 20.0451C23.3286 20.0263 23.3447 19.9887 23.3661 19.9317C23.4088 19.8176 23.4731 19.625 23.5398 19.3475C23.6732 18.7931 23.8175 17.8946 23.8175 16.6005C23.8175 15.3064 23.6732 14.4078 23.5398 13.8534C23.4731 13.5759 23.4088 13.3833 23.3661 13.2693C23.3447 13.2123 23.3286 13.1747 23.3202 13.1559L23.314 13.1425C23.0763 12.6711 23.2373 12.082 23.6775 11.8213Z" fill="#22313F"/>
</svg>
